<svg width="24" height="24" viewBox="0 0 24 24" fill="none" xmlns="http://www.w3.org/2000/svg">
<g clip-path="url(#clip0_31_13)">
<path d="M0.331109 11.378C0.331109 11.378 0.873109 11.289 1.09611 11.522C1.31911 11.755 1.17311 12.238 0.876109 12.246C0.580109 12.256 0.306109 12.309 0.112109 12.102C0.0617735 12.0453 0.0268122 11.9766 0.0105586 11.9025C-0.00569499 11.8284 -0.00269889 11.7514 0.0192612 11.6788C0.0412213 11.6062 0.0814132 11.5405 0.136004 11.4878C0.190595 11.4351 0.257765 11.3973 0.331109 11.378ZM6.21211 14.671C6.16011 14.681 6.10511 14.653 6.04811 14.611C5.66011 14.071 5.51911 12.219 5.34111 12.109C5.15611 11.995 4.48711 13.135 3.15511 13.012C2.59811 12.961 2.03111 12.6 1.69811 12.35C1.72811 11.93 1.73411 10.947 2.56311 11.267C3.06711 11.461 3.93011 11.993 4.68811 11.037C5.52611 9.97902 5.98811 10.287 6.26511 10.517C6.54211 10.747 6.35711 11.942 6.77111 11.607C7.18411 11.273 8.85311 9.19702 8.85311 9.19702C8.85311 9.19702 10.1451 7.89402 10.3431 9.26402C10.5411 10.634 11.3831 12.152 11.6061 12.109C11.8291 12.066 14.4281 6.78402 14.8011 6.44302C15.1741 6.10202 16.4261 6.14702 16.3661 7.02102C16.3061 7.89502 16.1791 13.329 16.1791 13.329C16.1791 13.329 16.0321 14.86 16.2721 14.042C16.3711 13.702 16.4781 13.397 16.6111 13.039C17.38 10.586 18.1394 8.12997 18.8891 5.67102L19.2061 4.58102C19.2337 4.46968 19.2661 4.35958 19.3031 4.25102C19.3491 4.09702 19.3791 3.99602 19.3891 3.96902C19.4131 3.90102 19.4811 3.84902 19.5771 3.81202C19.6741 3.75102 19.7771 3.74802 19.8941 3.74502C20.1961 3.71802 20.5841 3.75702 20.9341 3.85702C21.0361 3.85702 21.1461 3.89402 21.2511 3.96902C21.3561 4.04402 21.2571 3.96902 21.2661 3.97902C21.2691 3.97902 21.2711 3.97902 21.2741 3.98902C21.311 4.01606 21.3439 4.04802 21.3721 4.08402C21.3731 4.08402 21.3741 4.08402 21.3761 4.09402L21.4271 4.16702C21.6231 4.45302 21.7421 4.98102 21.6221 5.91702C21.3221 8.25202 21.0911 13.057 21.0911 13.057C21.0911 13.057 21.0441 13.286 21.5261 12.274C21.5441 12.24 21.5634 12.2074 21.5841 12.176C21.6187 12.1526 21.6494 12.1239 21.6751 12.091C21.9731 11.737 22.7721 11.528 23.3261 11.533C23.5601 11.561 23.7561 11.62 23.8731 11.693C24.0911 12.026 23.9631 13.255 23.9631 13.255C23.5011 13.298 22.6221 13.546 22.3101 13.592C21.9991 13.638 21.5251 15.662 20.8671 15.455C20.2091 15.248 18.7421 14.328 18.7421 14.202C18.7868 13.5782 18.8375 12.9549 18.8941 12.332V12.318C18.9161 12.045 18.8971 11.926 18.7711 12.198C18.6621 12.433 18.1901 13.934 17.6631 15.569C17.6071 15.712 16.6121 18.725 16.4811 19.092C16.3251 19.519 16.1941 19.845 16.1041 20.013C15.9661 20.2 15.7801 20.317 15.5211 20.239C14.8751 20.043 14.0561 19.149 14.0481 18.929C14.0331 17.678 14.1081 10.955 13.8061 11.515C13.4951 12.09 11.0761 16.076 11.0761 16.076C11.0361 16.086 11.0061 16.086 10.9701 16.086C10.7981 16.067 10.5331 16.012 10.4601 15.848L10.4471 15.82L10.4331 15.78C10.4001 15.67 10.3871 15.55 10.3581 15.453C10.2124 14.9769 10.0581 14.5035 9.89511 14.033C9.61611 13.124 9.32911 12.196 9.28211 12.093C9.19011 11.893 9.05511 11.977 8.93511 12.093C8.39511 12.551 7.24811 14.573 6.21211 14.683" fill="url(#paint0_linear_31_13)"/>
</g>
<defs>
<linearGradient id="paint0_linear_31_13" x1="12.0003" y1="3.73669" x2="12.0003" y2="20.2635" gradientUnits="userSpaceOnUse">
<stop stop-color="#4E0B93"/>
<stop offset="1" stop-color="#666666"/>
</linearGradient>
<clipPath id="clip0_31_13">
<rect width="24" height="24" fill="white"/>
</clipPath>
</defs>
</svg>
